<?xml version="1.0" encoding="UTF-8" standalone="no"?>
<!-- Created with Inkscape (http://www.inkscape.org/) -->

<svg
   width="200"
   height="57.930748"
   viewBox="0 0 52.916666 15.327511"
   version="1.1"
   id="svg5028"
   sodipodi:docname="Bank_Negara_Indonesia_2004.svg"
   inkscape:version="1.3.2 (091e20e, 2023-11-25, custom)"
   xmlns:inkscape="http://www.inkscape.org/namespaces/inkscape"
   xmlns:sodipodi="http://sodipodi.sourceforge.net/DTD/sodipodi-0.dtd"
   xmlns="http://www.w3.org/2000/svg"
   xmlns:svg="http://www.w3.org/2000/svg"
   xmlns:rdf="http://www.w3.org/1999/02/22-rdf-syntax-ns#"
   xmlns:cc="http://creativecommons.org/ns#"
   xmlns:dc="http://purl.org/dc/elements/1.1/">
  <defs
     id="defs5022">
    <clipPath
       id="clipPath112"
       clipPathUnits="userSpaceOnUse">
      <path
         inkscape:connector-curvature="0"
         id="path114"
         d="M 0,0 H 595.276 V 841.89 H 0 Z" />
    </clipPath>
    <clipPath
       id="clipPath78"
       clipPathUnits="userSpaceOnUse">
      <path
         inkscape:connector-curvature="0"
         id="path80"
         d="M 0,0 H 595.276 V 841.89 H 0 Z" />
    </clipPath>
    <clipPath
       id="clipPath56"
       clipPathUnits="userSpaceOnUse">
      <path
         inkscape:connector-curvature="0"
         id="path58"
         d="M 0,0 H 595.276 V 841.89 H 0 Z" />
    </clipPath>
    <clipPath
       id="clipPath40"
       clipPathUnits="userSpaceOnUse">
      <path
         inkscape:connector-curvature="0"
         id="path42"
         d="M 0,0 H 595.276 V 841.89 H 0 Z" />
    </clipPath>
    <clipPath
       id="clipPath26"
       clipPathUnits="userSpaceOnUse">
      <path
         inkscape:connector-curvature="0"
         id="path28"
         d="M 0,0 H 595.276 V 841.89 H 0 Z" />
    </clipPath>
  </defs>
  <sodipodi:namedview
     id="base"
     pagecolor="#ffffff"
     bordercolor="#666666"
     borderopacity="1.0"
     inkscape:pageopacity="0.0"
     inkscape:pageshadow="2"
     inkscape:zoom="0.7"
     inkscape:cx="674.28571"
     inkscape:cy="155"
     inkscape:document-units="px"
     inkscape:current-layer="layer1"
     showgrid="false"
     units="px"
     inkscape:window-width="1920"
     inkscape:window-height="1094"
     inkscape:window-x="-11"
     inkscape:window-y="-11"
     inkscape:window-maximized="1"
     inkscape:showpageshadow="2"
     inkscape:pagecheckerboard="0"
     inkscape:deskcolor="#d1d1d1" />
  <metadata
     id="metadata5025">
    <rdf:RDF>
      <cc:Work
         rdf:about="">
        <dc:format>image/svg+xml</dc:format>
        <dc:type
           rdf:resource="http://purl.org/dc/dcmitype/StillImage" />
      </cc:Work>
    </rdf:RDF>
  </metadata>
  <g
     inkscape:label="Layer 1"
     inkscape:groupmode="layer"
     id="layer1"
     transform="translate(-7.903e-7,-220.36267)">
    <path
       d="M 14.507339,234.87054 H 1.779604e-4 V 220.36267 H 14.507339 Z"
       style="fill:#ffffff;fill-opacity:1;fill-rule:nonzero;stroke:none;stroke-width:0.0530009"
       id="path176"
       inkscape:connector-curvature="0" />
    <path
       inkscape:connector-curvature="0"
       id="path188"
       style="fill:#f15a22;fill-opacity:1;fill-rule:nonzero;stroke:none;stroke-width:0.355742"
       d="m 5.8338147,230.15493 1.5464108,-1.2483 c -0.259336,-0.3255 -0.5055096,-0.65385 -0.7374534,-0.99287 -1.788671,-2.58803 -2.8484265,-5.22087 -2.0832253,-7.55098 H 7.903e-7 v 2.51474 z" />
    <path
       inkscape:connector-curvature="0"
       id="path192"
       style="fill:#f15a22;fill-opacity:1;fill-rule:nonzero;stroke:none;stroke-width:0.355742"
       d="m 8.2722841,226.39438 c 0.096762,-0.82141 0.3457812,-2.37066 1.8523489,-3.52149 1.304506,-0.99323 2.937006,-1.18426 4.382742,-0.57025 v -1.93986 H 6.4583553 c -0.5311228,2.36034 0.8640974,4.95406 1.8139288,6.0316" />
    <path
       inkscape:connector-curvature="0"
       id="path196"
       style="fill:#f15a22;fill-opacity:1;fill-rule:nonzero;stroke:none;stroke-width:0.355742"
       d="m 10.22481,224.02724 -0.0057,0.004 c -1.5147497,1.23087 -1.1422877,3.16255 0.267874,4.89466 1.08608,1.33687 2.539287,2.27532 4.020241,1.56384 v -5.70326 c -1.330476,-1.36285 -2.927402,-1.86195 -4.282423,-0.75951" />
    <path
       inkscape:connector-curvature="0"
       id="path200"
       style="fill:#f15a22;fill-opacity:1;fill-rule:nonzero;stroke:none;stroke-width:0.355742"
       d="m 6.9788481e-5,225.8523 v 9.01664 H 0.00220424 l 4.38914556,-3.5503 z" />
    <path
       inkscape:connector-curvature="0"
       id="path212"
       style="fill:#f15a22;fill-opacity:1;fill-rule:nonzero;stroke:none;stroke-width:0.355742"
       d="m 7.9827457,229.62178 c -0.4311594,0.35432 -0.9637052,0.78797 -1.5545928,1.27071 l 0.5702546,0.71006 c 0.8242542,1.03094 2.0305756,2.81713 3.5243365,2.33367 l 0.0555,0.0679 -1.0615345,0.86481 h 4.9907055 v -3.43007 c -2.567746,1.39522 -4.7754815,0.12522 -6.5246653,-1.81713" />
    <path
       inkscape:connector-curvature="0"
       id="path216"
       style="fill:#f15a22;fill-opacity:1;fill-rule:nonzero;stroke:none;stroke-width:0.355742"
       d="m 5.5741585,232.79262 -0.5908876,-0.73497 c -1.2113015,0.97225 -2.4827237,1.99145 -3.5147314,2.81143 h 5.584083 c -0.3625012,-0.76947 -1.0213354,-1.50657 -1.478464,-2.07646" />
    <path
       inkscape:connector-curvature="0"
       id="path220"
       style="fill:#006885;fill-opacity:1;fill-rule:nonzero;stroke:none;stroke-width:0.355742"
       d="m 26.590332,226.42266 c 1.336878,-0.23372 2.207024,-1.3881 2.207024,-2.86123 0,-1.96298 -1.699024,-3.19848 -4.60686,-3.19848 h -5.754839 v 0.0669 c 1.175727,0.64461 1.148691,1.68515 1.148691,2.6791 v 8.99316 c 0,1.01101 0.02704,2.06223 -1.148691,2.69652 v 0.0655 h 2.771231 c 2.707196,0 4.783662,0.0462 6.333276,-0.68232 1.646374,-0.77373 2.643874,-2.1622 2.643874,-3.85517 0,-2.16078 -1.607598,-3.48627 -3.593706,-3.90392 m -4.749156,-4.72212 1.821398,0.0299 c 1.350754,0 2.731744,0.66132 2.731744,2.18247 0,1.80753 -1.22233,2.29063 -2.963686,2.29063 l -1.589456,0.002 v -0.002 z m 1.755586,11.67332 -1.755586,0.002 v -5.71748 -0.0811 l 1.887566,-0.009 c 2.196708,0 4.009926,0.81572 4.009926,2.95444 0,2.09425 -1.903576,2.8502 -4.141906,2.8502" />
    <path
       inkscape:connector-curvature="0"
       id="path224"
       style="fill:#006885;fill-opacity:1;fill-rule:nonzero;stroke:none;stroke-width:0.355742"
       d="m 34.596058,232.10283 c 0,1.23727 -0.02241,2.1156 1.1462,2.80254 v 0.0623 h -3.901066 v -0.0623 c 1.16719,-0.68694 1.146912,-1.56527 1.146912,-2.80254 v -8.81208 c 0,-1.22803 0.02028,-2.20169 -1.14549,-2.85981 v -0.0679 h 3.23832 v 0.0217 c 0.08609,0.26289 0.229454,0.41052 0.329418,0.55282 0.103876,0.13732 0.308072,0.43863 0.308072,0.43863 l 7.428606,10.01201 v -8.18314 c 0,-1.23371 0.0192,-2.11595 -1.14549,-2.77407 v -0.0679 h 3.877588 v 0.0679 c -1.145132,0.65812 -1.145132,1.54036 -1.145132,2.77407 v 12.48512 c -0.708284,-0.28103 -2.683008,-1.92527 -4.089256,-3.81711 -2.524346,-3.39022 -6.048682,-8.10522 -6.048682,-8.10522 z" />
    <path
       inkscape:connector-curvature="0"
       id="path228"
       style="fill:#006885;fill-opacity:1;fill-rule:nonzero;stroke:none;stroke-width:0.355742"
       d="m 49.496208,222.99167 c 0,-1.01351 -0.01744,-1.91709 -1.14371,-2.56063 v -0.0683 h 4.56417 v 0.0683 c -1.130904,0.62397 -1.140864,1.56705 -1.140864,2.56063 v 9.26886 c 0,0.99039 -0.02633,1.99429 1.140864,2.63997 v 0.0654 h -4.56417 v -0.0654 c 1.173948,-0.65493 1.14371,-1.64104 1.14371,-2.63392 z" />
  </g>
</svg>
