<?xml version="1.0" encoding="UTF-8"?>
<!DOCTYPE svg PUBLIC "-//W3C//DTD SVG 1.1//EN" "http://www.w3.org/Graphics/SVG/1.1/DTD/svg11.dtd">
<!-- Creator: CorelDRAW 2019 (64-Bit Evaluation Version) -->
<svg xmlns="http://www.w3.org/2000/svg" xml:space="preserve" width="42.4583mm" height="49.858mm" version="1.1" style="shape-rendering:geometricPrecision; text-rendering:geometricPrecision; image-rendering:optimizeQuality; fill-rule:evenodd; clip-rule:evenodd"
viewBox="0 0 1064.59 1250.13"
 xmlns:xlink="http://www.w3.org/1999/xlink">
 <defs>
  <style type="text/css">
   <![CDATA[
    .str1 {stroke:white;stroke-width:47.74;stroke-miterlimit:22.9256}
    .str2 {stroke:#FBB20B;stroke-width:14.44;stroke-miterlimit:22.9256}
    .str0 {stroke:white;stroke-width:60.18;stroke-miterlimit:22.9256}
    .fil1 {fill:none}
    .fil4 {fill:#FBB20B}
    .fil0 {fill:white}
    .fil3 {fill:#FBB20B;fill-rule:nonzero}
    .fil2 {fill:white;fill-rule:nonzero}
   ]]>
  </style>
 </defs>
 <g id="Layer_x0020_1">
  <metadata id="CorelCorpID_0Corel-Layer"/>
  <g id="_2190294364272">
   <g>
    <path class="fil0" d="M253.8 235.66l606.93 0c38.94,0 72.66,15.6 97.85,40.78 0.12,0.12 0.24,0.25 0.36,0.37l0 -0c23.69,23.7 38.91,56.29 42.22,91.61l62.58 667.55c0.6,6.45 0.91,10.48 0.91,12.08 0,37.82 -15.99,71.46 -41.12,96.16 -22.65,22.26 -53.69,37.16 -86.97,40.36l0 0.04c-6.64,0.63 -11.07,0.94 -13.26,0.94l-425.75 0c-51.7,0 -93.61,-41.91 -93.61,-93.61 0,-13.46 2.85,-26.25 7.96,-37.81 6.77,-17.55 13.64,-34.4 20.23,-50.59 23.49,-57.67 42.81,-105.09 39.04,-147.69 -2.31,-26.11 -5.51,-41.49 -10.53,-50.25 -3.84,-6.71 -12.56,-13.76 -25.95,-22.92 -10.37,-7.09 -20.58,-10.22 -30.81,-11.25 -15.09,-1.52 -35.02,0.52 -55.79,2.91 -26.45,3.04 -78.33,31.88 -114.13,51.78 -5.07,2.82 -10.01,5.56 -18.52,10.19 -45.23,24.63 -101.88,7.94 -126.51,-37.3 -9.47,-17.38 -12.82,-36.45 -10.81,-54.74l35.24 -375.85c3.33,-35.59 18.55,-68.31 42.22,-91.98 25.19,-25.19 59.02,-40.78 98.21,-40.78zm0 93.61l606.93 0c26.16,0 45.12,21.52 47.56,47.56l62.58 667.55c2.44,26.03 -21.42,47.56 -47.56,47.56 -155.29,0 -270.46,0 -425.75,0 36.36,-95.12 74,-163.5 66.87,-244.13 -7.13,-80.63 -27.45,-108.33 -77.07,-142.28 -49.62,-33.94 -98.62,-29.96 -149.86,-24.06 -51.24,5.9 -125.2,50.41 -166.66,72.94l35.4 -377.57c2.44,-26.04 21.4,-47.56 47.56,-47.56z"/>
   </g>
   <path class="fil1 str0" d="M402.07 236.96c-0.48,-52.28 -7.06,-99.71 20.01,-142.08 23.84,-37.3 71.7,-63.81 115.97,-64.78 45.62,-0.99 95.78,23.13 123.28,59.55 29.84,39.52 30.45,95.05 31.21,147.05"/>
   <path class="fil0" d="M176.34 1080.91c-44.41,-37.73 -151.41,-37.47 -167.84,-80.59 -3.63,-9.53 1.64,-21.93 10.61,-26.78 121.38,-65.56 247.43,-122.47 374.47,-176.26 10.08,-4.27 24.35,-3.28 32.64,3.88l0.02 0.02c8.04,7.43 10.63,21.49 7.52,32 -39.17,132.28 -81.54,263.93 -133.05,391.91 -3.81,9.46 -15.55,16.09 -25.42,13.55 -44.7,-11.48 -56.47,-117.83 -98.95,-157.72z"/>
   <g id="_2190294374448">
    <g>
     <path class="fil1 str1" d="M419.47 456.49c26.85,0 48.62,21.76 48.62,48.62 0,26.85 -21.76,48.62 -48.62,48.62 -26.85,0 -48.62,-21.77 -48.62,-48.62 0,-26.85 21.77,-48.62 48.62,-48.62z"/>
    </g>
    <g>
     <path class="fil2" d="M589.78 549.49c-26.36,0 -47.74,-21.19 -47.74,-47.33 0,-26.14 21.38,-47.33 47.74,-47.33l0 94.65zm238.16 0l-238.16 0 0 -94.65 238.16 0 0 94.65zm0 -94.65c26.36,0 47.74,21.19 47.74,47.33 0,26.14 -21.38,47.33 -47.74,47.33l0 -94.65z"/>
    </g>
   </g>
   <g>
    <g>
     <path class="fil3" d="M671.39 678.62c-20.01,0 -36.24,-16.25 -36.24,-36.3 0,-20.05 16.23,-36.3 36.24,-36.3l0 72.6zm192.36 0l-192.36 0 0 -72.6 192.36 0 0 72.6zm0 -72.6c20.01,0 36.24,16.25 36.24,36.3 0,20.05 -16.23,36.3 -36.24,36.3l0 -72.6z"/>
    </g>
    <circle class="fil4 str2" cx="549.11" cy="642.32" r="45.86"/>
   </g>
   <g>
    <g>
     <path class="fil2" d="M680.06 764.29l-30.05 0 0 0 -0.02 -0.82 -0.06 -0.79 -0.1 -0.78 -0.14 -0.77 -0.17 -0.74 -0.21 -0.73 -0.25 -0.73 -0.28 -0.7 -0.31 -0.69 -0.34 -0.67 -0.37 -0.64 -0.41 -0.64 -0.44 -0.62 -0.46 -0.58 -0.49 -0.57 -0.52 -0.55 -0.55 -0.52 -0.57 -0.49 -0.58 -0.46 -0.62 -0.44 -0.64 -0.41 -0.64 -0.37 -0.67 -0.34 -0.69 -0.31 -0.7 -0.28 -0.73 -0.25 -0.73 -0.21 -0.74 -0.17 -0.77 -0.14 -0.78 -0.1 -0.79 -0.06 -0.82 -0.02 0 -30.05 2.33 0.06 2.31 0.18 2.28 0.29 2.24 0.4 2.22 0.51 2.18 0.62 2.12 0.72 2.08 0.82 2.03 0.92 1.97 1.01 1.92 1.11 1.84 1.18 1.78 1.27 1.73 1.36 1.65 1.43 1.58 1.51 1.51 1.58 1.43 1.65 1.36 1.73 1.27 1.78 1.18 1.84 1.11 1.92 1.01 1.97 0.92 2.03 0.82 2.08 0.72 2.12 0.62 2.18 0.51 2.22 0.4 2.24 0.29 2.28 0.18 2.31 0.06 2.33 0 0zm-45.63 45.63l0 -30.05 0 0 0.82 -0.02 0.79 -0.06 0.78 -0.1 0.77 -0.14 0.74 -0.17 0.73 -0.21 0.73 -0.25 0.7 -0.28 0.69 -0.31 0.67 -0.34 0.64 -0.37 0.64 -0.41 0.62 -0.44 0.58 -0.46 0.57 -0.49 0.55 -0.52 0.52 -0.55 0.49 -0.57 0.46 -0.58 0.44 -0.62 0.41 -0.64 0.37 -0.64 0.34 -0.67 0.31 -0.69 0.28 -0.7 0.25 -0.73 0.21 -0.73 0.17 -0.74 0.14 -0.77 0.1 -0.78 0.06 -0.79 0.02 -0.82 30.05 0 -0.06 2.33 -0.18 2.31 -0.29 2.28 -0.4 2.24 -0.51 2.22 -0.62 2.18 -0.72 2.12 -0.82 2.08 -0.92 2.03 -1.01 1.97 -1.11 1.92 -1.18 1.84 -1.27 1.78 -1.36 1.73 -1.43 1.65 -1.51 1.58 -1.58 1.51 -1.65 1.43 -1.73 1.36 -1.78 1.27 -1.84 1.18 -1.92 1.11 -1.97 1.01 -2.03 0.92 -2.08 0.82 -2.12 0.72 -2.18 0.62 -2.22 0.51 -2.24 0.4 -2.28 0.29 -2.31 0.18 -2.33 0.06 0 0zm-45.63 -45.63l30.05 0 0 0 0.02 0.82 0.06 0.79 0.1 0.78 0.14 0.77 0.17 0.74 0.21 0.73 0.25 0.73 0.28 0.7 0.31 0.69 0.34 0.67 0.37 0.64 0.41 0.64 0.44 0.62 0.46 0.58 0.49 0.57 0.52 0.55 0.55 0.52 0.57 0.49 0.58 0.46 0.62 0.44 0.64 0.41 0.64 0.37 0.67 0.34 0.69 0.31 0.7 0.28 0.73 0.25 0.73 0.21 0.74 0.17 0.77 0.14 0.78 0.1 0.79 0.06 0.82 0.02 0 30.05 -2.33 -0.06 -2.31 -0.18 -2.28 -0.29 -2.24 -0.4 -2.22 -0.51 -2.18 -0.62 -2.12 -0.72 -2.08 -0.82 -2.03 -0.92 -1.97 -1.01 -1.92 -1.11 -1.84 -1.18 -1.78 -1.27 -1.73 -1.36 -1.65 -1.43 -1.58 -1.51 -1.51 -1.58 -1.43 -1.65 -1.36 -1.73 -1.27 -1.78 -1.18 -1.84 -1.11 -1.92 -1.01 -1.97 -0.92 -2.03 -0.82 -2.08 -0.72 -2.12 -0.62 -2.18 -0.51 -2.22 -0.4 -2.24 -0.29 -2.28 -0.18 -2.31 -0.06 -2.33 0 0zm45.63 -45.63l0 30.05 0 0 -0.82 0.02 -0.79 0.06 -0.78 0.1 -0.77 0.14 -0.74 0.17 -0.73 0.21 -0.73 0.25 -0.7 0.28 -0.69 0.31 -0.67 0.34 -0.64 0.37 -0.64 0.41 -0.62 0.44 -0.58 0.46 -0.57 0.49 -0.55 0.52 -0.52 0.55 -0.49 0.57 -0.46 0.58 -0.44 0.62 -0.41 0.64 -0.37 0.64 -0.34 0.67 -0.31 0.69 -0.28 0.7 -0.25 0.73 -0.21 0.73 -0.17 0.74 -0.14 0.77 -0.1 0.78 -0.06 0.79 -0.02 0.82 -30.05 0 0.06 -2.33 0.18 -2.31 0.29 -2.28 0.4 -2.24 0.51 -2.22 0.62 -2.18 0.72 -2.12 0.82 -2.08 0.92 -2.03 1.01 -1.97 1.11 -1.92 1.18 -1.84 1.27 -1.78 1.36 -1.73 1.43 -1.65 1.51 -1.58 1.58 -1.51 1.65 -1.43 1.73 -1.36 1.78 -1.27 1.84 -1.18 1.92 -1.11 1.97 -1.01 2.03 -0.92 2.08 -0.82 2.12 -0.72 2.18 -0.62 2.22 -0.51 2.24 -0.4 2.28 -0.29 2.31 -0.18 2.33 -0.06 0 0z"/>
    </g>
    <g>
     <path class="fil2" d="M741.65 792.24c-16.6,0 -30.05,-13.34 -30.05,-29.8 0,-16.45 13.46,-29.8 30.05,-29.8l0 59.59zm149.93 0l-149.93 0 0 -59.59 149.93 0 0 59.59zm0 -59.59c16.6,0 30.05,13.34 30.05,29.8 0,16.45 -13.46,29.8 -30.05,29.8l0 -59.59z"/>
    </g>
   </g>
   <polygon class="fil4" points="39.74,1071.18 51.38,1082.69 16.99,1121.72 1.16,1106.07 "/>
   <polygon class="fil4" points="188.45,1204.91 199.18,1214.39 171.03,1250.13 156.45,1237.23 "/>
   <polygon class="fil4" points="128.59,1120.83 143.65,1137.56 20.48,1248.99 -0,1226.23 "/>
  </g>
 </g>
</svg>
